<?xml version="1.0" encoding="utf-8"?>
<!-- Generator: Adobe Illustrator 28.0.0, SVG Export Plug-In . SVG Version: 6.00 Build 0)  -->
<svg version="1.1" id="Layer_1" xmlns="http://www.w3.org/2000/svg" xmlns:xlink="http://www.w3.org/1999/xlink" x="0px" y="0px"
	 viewBox="0 0 1653.4 36.1" style="enable-background:new 0 0 1653.4 36.1;" xml:space="preserve">
<style type="text/css">
	.st0{fill:#FFFFFF;}
	.st1{fill:url(#SVGID_1_);}
	.st2{fill:url(#SVGID_00000106835395442049554880000011391569078538288293_);}
	.st3{fill:url(#SVGID_00000113311225540560176230000012800153368384159408_);}
	.st4{fill:url(#SVGID_00000003075139227132685160000007505260434756829089_);}
</style>
<g>
	<path class="st0" d="M123.5,17.1h9.6v4.1v5.2c-2.2,2.1-5,3.1-8.4,3.1c-2,0-3.7-0.3-5.2-0.8s-2.8-1.3-3.8-2.2c-1-1-1.7-2.1-2.2-3.4
		c-0.6-1.3-0.8-2.8-0.8-4.5c0-1.7,0.2-3.1,0.7-4.4s1.2-2.4,2.2-3.3c1-0.9,2.2-1.7,3.7-2.2c1.6-0.5,3.4-0.7,5.4-0.7
		c2.2,0,4.5,0.4,6.9,1.1v5.3c-0.1,0-0.5-0.2-1.2-0.4c-0.7-0.2-1.2-0.4-1.6-0.5c-0.4-0.1-0.9-0.2-1.6-0.3c-0.7-0.2-1.4-0.2-2.2-0.2
		c-2.2,0-3.8,0.5-5,1.4c-1.1,0.9-1.7,2.4-1.7,4.3c0,1.9,0.6,3.4,1.7,4.4s2.6,1.6,4.6,1.6c1.6,0,2.8-0.4,3.7-1.2v-2.2h-4.9
		L123.5,17.1z M151.7,29.2l-1-2.8H143l-1,2.8h-6.1l8.8-21h4.7l8.3,21L151.7,29.2z M144.6,21.9h4.6l-2.2-6.6L144.6,21.9z M179.7,8.2
		h4.7v21H179V18l-6.1,8.3l-6-8.3v11.2h-5.4v-21h4.7l6.7,9.5L179.7,8.2z M189.8,29.2v-21h5.4v21H189.8z M214.1,8.2h5.4v21h-3.9
		L205.9,18v11.2h-5.4v-21h3.9l9.6,11.2L214.1,8.2z M234.5,17.1h9.6v4.1v5.2c-2.2,2.1-5,3.1-8.4,3.1c-2,0-3.7-0.3-5.2-0.8
		s-2.8-1.3-3.8-2.2c-1-1-1.7-2.1-2.2-3.4s-0.7-2.8-0.7-4.5s0.2-3.1,0.7-4.4s1.2-2.4,2.2-3.3c1-0.9,2.2-1.7,3.7-2.2
		c1.5-0.5,3.3-0.7,5.3-0.7c2.2,0,4.5,0.4,6.9,1.1v5.3c-0.1,0-0.5-0.2-1.2-0.4s-1.2-0.4-1.6-0.5c-0.4-0.1-0.9-0.2-1.6-0.3
		s-1.4-0.2-2.1-0.2c-2.2,0-3.8,0.5-5,1.4c-1.1,0.9-1.7,2.4-1.7,4.3s0.6,3.4,1.7,4.4c1.1,1,2.6,1.6,4.6,1.6c1.6,0,2.8-0.4,3.7-1.2
		v-2.2h-4.9V17.1z M265,29.5c-1.8,0-3.5-0.3-5.2-1c-1.7-0.7-3-1.6-4-2.7l2.7-4c1.2,1,2.2,1.6,3,2.1c0.8,0.4,1.8,0.6,2.7,0.6
		c0.8,0,1.6-0.1,2.2-0.4c0.6-0.3,0.9-0.7,0.9-1.3c0-0.4-0.2-0.7-0.6-1c-0.4-0.2-1.1-0.5-2.1-0.7c-0.1,0-0.3-0.1-0.6-0.1
		c-0.5-0.1-0.8-0.2-1.1-0.3c-0.3-0.1-0.6-0.2-1.1-0.3c-0.5-0.2-0.9-0.3-1.2-0.4c-0.3-0.1-0.7-0.3-1.1-0.5s-0.8-0.4-1-0.6
		c-0.3-0.2-0.5-0.5-0.8-0.8c-0.3-0.3-0.5-0.6-0.7-1c-0.2-0.4-0.3-0.7-0.4-1.2c-0.1-0.4-0.2-0.9-0.2-1.4c0-2,0.8-3.5,2.3-4.7
		c1.6-1.2,3.7-1.7,6.3-1.7c3,0,5.7,0.8,7.9,2.5l-2.2,4.2c-0.9-0.5-1.6-0.8-2-1s-1-0.4-1.7-0.6c-0.7-0.2-1.4-0.3-2-0.3
		c-0.8,0-1.5,0.1-2,0.4c-0.5,0.2-0.7,0.6-0.7,1.1c0,0.2,0.1,0.4,0.2,0.6c0.1,0.2,0.2,0.3,0.4,0.4c0.1,0.1,0.3,0.2,0.6,0.3
		c0.3,0.1,0.5,0.2,0.6,0.2c0.2,0,0.4,0.1,0.6,0.1c0.7,0.1,1.2,0.3,1.7,0.4c0.4,0.1,1,0.3,1.7,0.5c0.7,0.2,1.2,0.4,1.7,0.6
		c0.4,0.2,0.9,0.5,1.4,0.9s0.9,0.7,1.2,1.1c0.3,0.4,0.5,0.9,0.7,1.5c0.2,0.6,0.3,1.2,0.3,1.9c0,2-0.8,3.7-2.3,4.9
		C269.5,28.9,267.5,29.5,265,29.5z M286.8,8.2c2.3,0,4.1,0.6,5.6,1.9c1.4,1.2,2.1,2.9,2.1,4.9s-0.7,3.7-2.1,4.9
		c-1.4,1.2-3.3,1.9-5.6,1.9h-3.9v7.4h-5.4v-21L286.8,8.2z M286.8,17.2c0.8,0,1.4-0.2,1.8-0.7s0.6-1,0.6-1.6s-0.2-1.1-0.6-1.5
		c-0.4-0.5-1-0.7-1.8-0.7h-3.9v4.5H286.8z M311,29.2l-0.9-2.8h-7.7l-1,2.8h-6.1l8.8-21h4.7l8.3,21H311z M303.9,21.9h4.6l-2.2-6.6
		L303.9,21.9z M334.3,8.1h5.4v21h-3.9L326.2,18v11.2h-5.4v-21h3.9l9.6,11.2V8.1z M345.1,29.1v-21h5.4v21H345.1z M369.4,8.1h5.4v21
		h-3.9L361.2,18v11.2h-5.4v-21h3.9l9.6,11.2L369.4,8.1z M389.8,17.1h9.6v4.1v5.2c-2.2,2.1-5,3.1-8.4,3.1c-2,0-3.7-0.3-5.2-0.8
		s-2.8-1.3-3.8-2.2c-1-1-1.7-2.1-2.2-3.4s-0.7-2.8-0.7-4.5s0.2-3.1,0.7-4.4s1.2-2.4,2.2-3.3c1-0.9,2.2-1.7,3.7-2.2S389,8,391,8
		c2.2,0,4.5,0.4,6.9,1.1v5.3c-0.1,0-0.5-0.2-1.2-0.4s-1.2-0.4-1.6-0.5s-0.9-0.2-1.6-0.3s-1.4-0.2-2.1-0.2c-2.2,0-3.8,0.5-5,1.4
		c-1.1,0.9-1.7,2.4-1.7,4.3c0,1.9,0.6,3.4,1.7,4.4s2.6,1.6,4.6,1.6c1.6,0,2.8-0.4,3.7-1.2v-2.2h-4.9V17.1z"/>
	<path class="st0" d="M521.9,29.1l-0.9-2.8h-7.7l-1,2.8h-6.1l8.8-21h4.7l8.3,21H521.9z M514.9,21.9h4.6l-2.2-6.6L514.9,21.9z
		 M542.5,29.5c-4,0-7-0.9-9-2.8s-3-4.6-3-8s1-6.1,3-8s5-2.8,9-2.8c2.2,0,4.5,0.4,6.9,1.1v5.2c0,0-0.3-0.1-0.8-0.3s-0.8-0.3-1-0.3
		c-0.1,0-0.4-0.1-0.9-0.2c-0.5-0.1-0.9-0.2-1.2-0.3c-0.3,0-0.7-0.1-1.2-0.1s-1-0.1-1.4-0.1c-4.5,0-6.7,1.9-6.7,5.8s2.2,5.8,6.7,5.8
		c0.6,0,1.1,0,1.6-0.1c0.5,0,1-0.1,1.6-0.3c0.5-0.1,0.9-0.2,1.2-0.3c0.2-0.1,0.6-0.2,1.2-0.4c0.6-0.2,0.9-0.3,0.9-0.3v5.2
		C547,29.1,544.7,29.5,542.5,29.5z M571.5,8.1v5.2h-6.6v15.8h-5.4V13.3H553V8.1H571.5z M575.6,29.1v-21h5.4v21H575.6z M596,29.5
		c-3.3,0-5.9-1-7.8-2.9c-1.9-1.9-2.9-4.5-2.9-7.8c0-2.2,0.4-4.1,1.3-5.7c0.9-1.6,2.1-2.9,3.7-3.8c1.6-0.9,3.5-1.3,5.7-1.3
		c2.1,0,4,0.5,5.7,1.4c1.6,0.9,2.9,2.2,3.7,3.8c0.9,1.6,1.3,3.5,1.3,5.7c0,3.3-1,5.9-2.9,7.8C601.8,28.5,599.3,29.5,596,29.5z
		 M596,24.5c1.5,0,2.6-0.5,3.5-1.4c0.9-0.9,1.3-2.4,1.3-4.3c0-1.9-0.4-3.4-1.3-4.4c-0.9-1-2.1-1.5-3.5-1.5c-1.5,0-2.6,0.5-3.5,1.5
		c-0.9,1-1.3,2.4-1.3,4.4c0,1.9,0.4,3.3,1.3,4.3C593.3,24,594.5,24.5,596,24.5z M624.5,8.1h5.4v21H626l-9.6-11.2v11.2H611v-21h3.9
		l9.6,11.2V8.1z M643.2,26.2C643.1,26.2,643.1,26.2,643.2,26.2l-0.1,1.4h0.1c0.2,0,0.3-0.1,0.4-0.2c0.1-0.1,0.1-0.3,0.1-0.6
		c0-0.3,0-0.4-0.1-0.6C643.5,26.3,643.4,26.2,643.2,26.2z M645.4,26.7v0.4h-0.6v0.6h0.7v0.4h-1.1V26h1.1v0.4h-0.7v0.5L645.4,26.7z
		 M643.2,28c-0.2,0-0.4,0-0.5,0v-2.1c0.3,0,0.4-0.1,0.5-0.1c0.3,0,0.6,0.1,0.7,0.3c0.1,0.2,0.2,0.5,0.2,0.8c0,0.4-0.1,0.7-0.2,0.8
		C643.7,27.9,643.5,28,643.2,28z M645.9,25.9h0.6l0.3,1.2l0.3-1.2h0.6c0,0.2,0,0.6,0,1.2s0,0.9,0,1h-0.4c0-0.5,0-1,0-1.5l-0.3,1.2
		h-0.4l-0.3-1.2l0,0c0,0.7,0,1.2,0,1.5h-0.4C645.8,27.2,645.9,26.5,645.9,25.9z M649.4,27.8c-0.1,0.2-0.3,0.2-0.6,0.2
		s-0.5-0.1-0.6-0.2c-0.1-0.2-0.2-0.5-0.2-0.8c0-0.4,0.1-0.7,0.2-0.8c0.1-0.2,0.3-0.3,0.6-0.3s0.5,0.1,0.6,0.3
		c0.1,0.2,0.2,0.5,0.2,0.8S649.5,27.6,649.4,27.8z M648.8,26.2c-0.1,0-0.2,0.1-0.3,0.2c0,0.1-0.1,0.3-0.1,0.6c0,0.5,0.1,0.7,0.4,0.7
		c0.1,0,0.2-0.1,0.3-0.2c0-0.1,0.1-0.3,0.1-0.6c0-0.3,0-0.4-0.1-0.6C649,26.3,648.9,26.2,648.8,26.2z M648.7,21.8
		c0.3,0,0.6,0.1,0.7,0.3c0.1,0.2,0.2,0.4,0.2,0.6s-0.1,0.4-0.2,0.5c-0.2,0.1-0.3,0.2-0.5,0.2c-1,0.1-1.8,0.5-2.4,1.1
		c0-0.1,0.1-0.2,0.1-0.3c0.1-0.1,0.2-0.3,0.3-0.7c0.2-0.3,0.3-0.6,0.5-0.8c0.2-0.2,0.4-0.5,0.6-0.7
		C648.2,21.9,648.4,21.8,648.7,21.8z M643.8,22.6c0.3,0,0.5,0.1,0.8,0.3c0.3,0.2,0.5,0.4,0.6,0.7c0.2,0.3,0.3,0.5,0.5,0.8
		c0.1,0.3,0.2,0.5,0.3,0.7l0.1,0.3c-0.6-0.7-1.3-1.1-2.3-1.1c-0.2,0-0.4-0.1-0.6-0.2c-0.2-0.1-0.3-0.3-0.3-0.5
		c0-0.3,0.1-0.5,0.2-0.6C643.3,22.7,643.5,22.6,643.8,22.6z M646.3,20.4c0.2,0.2,0.3,0.4,0.4,0.7c0,0.3,0,0.6,0,0.9
		c-0.1,0.3-0.1,0.6-0.2,0.9c-0.1,0.3-0.2,0.5-0.2,0.7l-0.1,0.3c0.1-0.9-0.2-1.7-0.9-2.4c-0.2-0.2-0.3-0.4-0.3-0.6s0-0.4,0.2-0.6
		s0.4-0.3,0.6-0.3C645.9,20.1,646.1,20.2,646.3,20.4z M671.6,8.1c2.3,0,4.1,0.6,5.6,1.9c1.4,1.2,2.1,2.9,2.1,4.9s-0.7,3.7-2.1,4.9
		c-1.4,1.2-3.3,1.9-5.6,1.9h-3.9v7.4h-5.4v-21L671.6,8.1z M671.6,17.1c0.8,0,1.4-0.2,1.8-0.7c0.4-0.5,0.6-1,0.6-1.6
		s-0.2-1.1-0.6-1.5c-0.4-0.5-1-0.7-1.8-0.7h-3.9v4.5L671.6,17.1z M695.8,29.1l-0.9-2.8h-7.7l-1,2.8h-6.1l8.8-21h4.7l8.3,21H695.8z
		 M688.7,21.9h4.6l-2.2-6.6L688.7,21.9z M716.4,29.5c-4,0-7-0.9-9-2.8s-3-4.6-3-8s1-6.1,3-8s5-2.8,9-2.8c2.2,0,4.5,0.4,6.9,1.1v5.2
		c0,0-0.3-0.1-0.8-0.3s-0.8-0.3-1-0.3c-0.1,0-0.4-0.1-0.9-0.2c-0.5-0.1-0.9-0.2-1.2-0.3c-0.3,0-0.7-0.1-1.2-0.1s-1-0.1-1.4-0.1
		c-4.5,0-6.7,1.9-6.7,5.8s2.2,5.8,6.7,5.8c0.6,0,1.1,0,1.6-0.1c0.5,0,1-0.1,1.6-0.3c0.5-0.1,0.9-0.2,1.2-0.3
		c0.2-0.1,0.6-0.2,1.2-0.4c0.6-0.2,0.9-0.3,0.9-0.3v5.2C720.9,29.1,718.6,29.5,716.4,29.5z M747.9,29.1h-7l-7.3-9.9v9.9h-5.4v-21
		h5.4v10.8l7.3-10.8h7L740.1,19L747.9,29.1z M751.6,29.1v-21h16v5.2H757V16h9.1v5.2H757V24h10.7v5.2L751.6,29.1z M781,8.1
		c2.9,0,5.2,1,6.9,2.9s2.6,4.5,2.6,7.6c0,3.3-0.8,5.8-2.5,7.7c-1.7,1.9-4,2.8-7,2.8h-8.6v-21L781,8.1z M780,24.1
		c1.6,0,2.8-0.4,3.6-1.3s1.2-2.3,1.2-4.2s-0.4-3.3-1.2-4.2s-2-1.3-3.6-1.3h-2.3v11L780,24.1z"/>
	
		<linearGradient id="SVGID_1_" gradientUnits="userSpaceOnUse" x1="470.4459" y1="746.0032" x2="497.3659" y2="727.6468" gradientTransform="matrix(0.9994 3.443214e-02 -3.443214e-02 0.9994 12.9546 -735.8935)">
		<stop  offset="0.2135" style="stop-color:#6542F4"/>
		<stop  offset="0.4844" style="stop-color:#F976FF"/>
		<stop  offset="0.7552" style="stop-color:#B50098"/>
	</linearGradient>
	<path class="st1" d="M469.7,0.1l4.9,13.1l13.1,4.9L474.6,23l-4.9,13.1L464.9,23l-13.2-4.9l13.1-4.9L469.7,0.1z"/>
	
		<linearGradient id="SVGID_00000072240703331247888050000014972900697016076730_" gradientUnits="userSpaceOnUse" x1="73.7784" y1="759.6695" x2="100.6984" y2="741.3131" gradientTransform="matrix(0.9994 3.443214e-02 -3.443214e-02 0.9994 12.9546 -735.8935)">
		<stop  offset="0.2135" style="stop-color:#6542F4"/>
		<stop  offset="0.4844" style="stop-color:#F976FF"/>
		<stop  offset="0.7552" style="stop-color:#B50098"/>
	</linearGradient>
	<path style="fill:url(#SVGID_00000072240703331247888050000014972900697016076730_);" d="M72.8,0.1l4.9,13.1l13.1,4.9L77.7,23
		l-4.9,13.1L68,23l-13.2-4.9l13.1-4.9L72.8,0.1z"/>
	<path class="st0" d="M917,8h4.7v21h-5.4V17.8l-6.1,8.3l-6-8.3V29h-5.4V8h4.7l6.7,9.5L917,8z M927.1,29V8h5.4v21H927.1z M951.4,8
		h5.4v21h-3.9l-9.6-11.2V29h-5.4V8h3.9l9.6,11.2V8z M970.8,8c2.9,0,5.2,1,6.9,2.9s2.6,4.5,2.6,7.6c0,3.3-0.8,5.8-2.5,7.7
		c-1.7,1.9-4,2.8-7,2.8h-8.6V8H970.8z M969.8,24c1.6,0,2.8-0.4,3.6-1.3s1.2-2.3,1.2-4.2c0-1.9-0.4-3.3-1.2-4.2s-2-1.3-3.6-1.3h-2.3
		v11H969.8z M992.6,26.2C992.5,26.2,992.5,26.2,992.6,26.2l-0.1,1.4h0.1c0.2,0,0.3-0.1,0.4-0.2c0.1-0.1,0.1-0.3,0.1-0.6
		c0-0.3,0-0.4-0.1-0.6C992.9,26.2,992.8,26.2,992.6,26.2z M994.8,26.7v0.4h-0.6v0.6h0.7v0.4h-1.1V26h1.1v0.4h-0.7v0.5L994.8,26.7z
		 M992.6,28c-0.2,0-0.4,0-0.5,0v-2.1c0.3,0,0.4-0.1,0.5-0.1c0.3,0,0.6,0.1,0.7,0.3c0.1,0.2,0.2,0.5,0.2,0.8c0,0.4-0.1,0.7-0.2,0.8
		C993.1,27.9,992.9,28,992.6,28z M995.3,25.8h0.6l0.3,1.2l0.3-1.2h0.6c0,0.2,0,0.6,0,1.2s0,0.9,0,1h-0.4c0-0.5,0-1,0-1.5l-0.3,1.2
		H996l-0.3-1.2l0,0c0,0.7,0,1.2,0,1.5h-0.4C995.2,27.1,995.2,26.4,995.3,25.8z M998.8,27.7c-0.1,0.2-0.3,0.2-0.6,0.2
		s-0.5-0.1-0.6-0.2c-0.1-0.2-0.2-0.5-0.2-0.8c0-0.4,0.1-0.7,0.2-0.8c0.1-0.2,0.3-0.3,0.6-0.3s0.5,0.1,0.6,0.3
		c0.1,0.2,0.2,0.5,0.2,0.8S998.9,27.5,998.8,27.7z M998.2,26.2c-0.1,0-0.2,0.1-0.3,0.2c0,0.1-0.1,0.3-0.1,0.6c0,0.5,0.1,0.7,0.4,0.7
		c0.1,0,0.2-0.1,0.3-0.2c0-0.1,0.1-0.3,0.1-0.6c0-0.3,0-0.4-0.1-0.6C998.4,26.2,998.3,26.2,998.2,26.2z M998,21.8
		c0.3,0,0.6,0.1,0.7,0.3c0.1,0.2,0.2,0.4,0.2,0.6s-0.1,0.4-0.2,0.5c-0.2,0.1-0.3,0.2-0.5,0.2c-1,0.1-1.8,0.5-2.4,1.1
		c0-0.1,0.1-0.2,0.1-0.3c0.1-0.1,0.2-0.3,0.3-0.7c0.2-0.3,0.3-0.6,0.5-0.8c0.2-0.2,0.4-0.5,0.6-0.7C997.6,21.9,997.8,21.8,998,21.8z
		 M993.1,22.5c0.3,0,0.5,0.1,0.8,0.3c0.3,0.2,0.5,0.4,0.6,0.7c0.2,0.3,0.3,0.5,0.5,0.8s0.2,0.5,0.3,0.7l0.1,0.3
		c-0.6-0.7-1.3-1.1-2.3-1.1c-0.2,0-0.4-0.1-0.6-0.2c-0.2-0.1-0.3-0.3-0.3-0.5c0-0.3,0.1-0.5,0.2-0.6
		C992.6,22.6,992.9,22.5,993.1,22.5z M995.7,20.4c0.2,0.2,0.3,0.4,0.4,0.7c0,0.3,0,0.6,0,0.9c-0.1,0.3-0.1,0.6-0.2,0.9
		c-0.1,0.3-0.2,0.5-0.2,0.7l-0.1,0.3c0.1-0.9-0.2-1.7-0.9-2.4c-0.2-0.2-0.3-0.4-0.3-0.6s0-0.4,0.2-0.6s0.4-0.3,0.6-0.3
		C995.2,20.1,995.5,20.2,995.7,20.4z M1025,18.3c2.2,0.9,3.3,2.6,3.3,5c0,1.9-0.7,3.3-2,4.3c-1.3,0.9-3.2,1.4-5.5,1.4h-9.1V8h8.1
		c2.4,0,4.3,0.5,5.6,1.4c1.3,0.9,2,2.4,2,4.4C1027.4,15.8,1026.6,17.3,1025,18.3z M1020.4,12.5h-3.3v4.1h3.3c0.7,0,1.3-0.2,1.7-0.6
		s0.6-0.9,0.6-1.5s-0.2-1-0.5-1.4C1021.8,12.7,1021.2,12.5,1020.4,12.5z M1020.6,24.6c0.9,0,1.5-0.2,1.9-0.6s0.6-0.9,0.6-1.5
		s-0.2-1.1-0.6-1.5c-0.4-0.4-1.1-0.6-1.9-0.6h-3.5v4.1L1020.6,24.6z M1032.6,29V8h16v5.2H1038v2.7h9.1v5.2h-9.1v2.8h10.7v5.2
		L1032.6,29z M1066.9,8h5.4v21h-3.9l-9.6-11.2V29h-5.4V8h3.9l9.6,11.2V8z M1086.2,8c2.9,0,5.2,1,6.9,2.9c1.7,1.9,2.6,4.5,2.6,7.6
		c0,3.3-0.8,5.8-2.5,7.7c-1.7,1.9-4,2.8-7,2.8h-8.6V8H1086.2z M1085.3,24c1.6,0,2.8-0.4,3.6-1.3c0.8-0.9,1.2-2.3,1.2-4.2
		c0-1.9-0.4-3.3-1.2-4.2c-0.8-0.9-2-1.3-3.6-1.3h-2.3v11H1085.3z M1100.1,29V8h5.4v21H1100.1z M1124.4,8h5.4v21h-3.9l-9.6-11.2V29
		h-5.4V8h3.9l9.6,11.2V8z M1144.9,17h9.6v4.1v5.2c-2.2,2.1-5,3.1-8.4,3.1c-2,0-3.7-0.3-5.2-0.8s-2.8-1.3-3.8-2.2
		c-1-1-1.7-2.1-2.2-3.4s-0.7-2.8-0.7-4.5s0.2-3.1,0.7-4.4s1.2-2.4,2.2-3.3c1-0.9,2.2-1.7,3.7-2.2s3.3-0.7,5.3-0.7
		c2.2,0,4.5,0.4,6.9,1.1v5.3c-0.1,0-0.5-0.2-1.2-0.4s-1.2-0.4-1.6-0.5s-0.9-0.2-1.6-0.3s-1.4-0.2-2.1-0.2c-2.2,0-3.8,0.5-4.9,1.4
		s-1.7,2.4-1.7,4.3c0,1.9,0.6,3.4,1.7,4.4s2.6,1.6,4.6,1.6c1.6,0,2.8-0.4,3.8-1.2v-2.2h-4.9L1144.9,17z"/>
	
		<linearGradient id="SVGID_00000007392666779132719650000013930412813663929005_" gradientUnits="userSpaceOnUse" x1="861.2438" y1="732.5216" x2="888.1638" y2="714.1652" gradientTransform="matrix(0.9994 3.443214e-02 -3.443214e-02 0.9994 12.9546 -735.8935)">
		<stop  offset="0.2135" style="stop-color:#6542F4"/>
		<stop  offset="0.4844" style="stop-color:#F976FF"/>
		<stop  offset="0.7552" style="stop-color:#B50098"/>
	</linearGradient>
	<path style="fill:url(#SVGID_00000007392666779132719650000013930412813663929005_);" d="M860.7,0.1l4.9,13.1l13.1,4.9L865.6,23
		l-4.9,13.1L855.8,23l-13.1-4.9l13.1-4.9L860.7,0.1z"/>
	<path class="st0" d="M1273.7,29.4c-4,0-7-0.9-9-2.8s-3-4.6-3-8s1-6.1,3-8s5-2.8,9-2.8c2.2,0,4.5,0.4,6.9,1.1v5.2
		c0,0-0.3-0.1-0.8-0.3s-0.8-0.3-1-0.3c-0.1,0-0.4-0.1-0.9-0.2c-0.5-0.1-0.9-0.2-1.2-0.3c-0.3,0-0.7-0.1-1.2-0.1s-1-0.1-1.4-0.1
		c-4.5,0-6.7,1.9-6.7,5.8s2.2,5.8,6.7,5.8c0.6,0,1.1,0,1.6-0.1c0.5,0,1-0.1,1.6-0.3c0.5-0.1,0.9-0.2,1.2-0.3
		c0.2-0.1,0.6-0.2,1.2-0.4c0.6-0.2,0.9-0.3,0.9-0.3v5.2C1278.2,29,1275.9,29.4,1273.7,29.4z M1295.2,29.4c-3.3,0-5.9-1-7.8-2.9
		s-2.9-4.5-2.9-7.8c0-2.2,0.4-4.1,1.3-5.7s2.1-2.9,3.7-3.8s3.5-1.3,5.6-1.3c2.2,0,4,0.5,5.7,1.4c1.6,0.9,2.9,2.2,3.7,3.8
		c0.9,1.6,1.3,3.5,1.3,5.7c0,3.3-1,5.9-2.9,7.8C1301,28.4,1298.4,29.4,1295.2,29.4z M1295.2,24.3c1.5,0,2.6-0.5,3.5-1.4
		s1.3-2.4,1.3-4.3c0-1.9-0.4-3.4-1.3-4.4s-2.1-1.5-3.5-1.5c-1.5,0-2.6,0.5-3.5,1.5s-1.3,2.4-1.3,4.4c0,1.9,0.4,3.3,1.3,4.3
		C1292.5,23.9,1293.7,24.3,1295.2,24.3z M1315.6,23.8h10.7V29h-16.1V8h5.4V23.8z M1335.7,23.8h10.7V29h-16.1V8h5.4V23.8z M1350.6,29
		V8h16v5.2H1356v2.7h9.1v5.2h-9.1v2.8h10.7v5.2L1350.6,29z M1382.2,29.3c-4,0-7-0.9-9-2.8s-3-4.6-3-8s1-6.1,3-8s5-2.8,9-2.8
		c2.2,0,4.5,0.4,6.9,1.1V14c0,0-0.3-0.1-0.8-0.3s-0.8-0.3-1-0.3c-0.1,0-0.5-0.1-0.9-0.2c-0.5-0.1-0.9-0.2-1.2-0.3
		c-0.3,0-0.7-0.1-1.2-0.1s-0.9-0.1-1.4-0.1c-4.5,0-6.7,1.9-6.7,5.8s2.2,5.8,6.7,5.8c0.6,0,1.1,0,1.6-0.1c0.5,0,1-0.1,1.6-0.3
		c0.5-0.1,0.9-0.2,1.2-0.3c0.2-0.1,0.6-0.2,1.2-0.4c0.6-0.2,0.9-0.3,0.9-0.3v5.2C1386.7,29,1384.4,29.3,1382.2,29.3z M1411.2,8v5.2
		h-6.6V29h-5.4V13.2h-6.5V8H1411.2z M1415.3,29V8h5.4v21H1415.3z M1435.7,29.3c-3.3,0-5.9-1-7.8-2.9s-2.9-4.5-2.9-7.8
		c0-2.2,0.4-4.1,1.3-5.7s2.1-2.9,3.7-3.8s3.5-1.3,5.6-1.3c2.2,0,4,0.5,5.7,1.4c1.6,0.9,2.9,2.2,3.7,3.8c0.9,1.6,1.3,3.5,1.3,5.7
		c0,3.3-1,5.9-2.9,7.8C1441.5,28.4,1439,29.3,1435.7,29.3z M1435.7,24.3c1.5,0,2.6-0.5,3.5-1.4s1.3-2.4,1.3-4.3
		c0-1.9-0.4-3.4-1.3-4.4s-2-1.5-3.5-1.5s-2.6,0.5-3.5,1.5s-1.3,2.4-1.3,4.4c0,1.9,0.4,3.3,1.3,4.3
		C1433,23.9,1434.2,24.3,1435.7,24.3z M1464.2,8h5.4v21h-3.9l-9.6-11.2V29h-5.4V8h3.9l9.6,11.2V8z M1493.2,29.3
		c-3.3,0-5.9-1-7.8-2.9s-2.9-4.5-2.9-7.8c0-2.2,0.4-4.1,1.3-5.7s2.1-2.9,3.7-3.8s3.5-1.3,5.6-1.3c2.2,0,4,0.5,5.7,1.4
		c1.6,0.9,2.9,2.2,3.7,3.8c0.9,1.6,1.3,3.5,1.3,5.7c0,3.3-1,5.9-2.9,7.8C1499,28.3,1496.4,29.3,1493.2,29.3z M1493.2,24.3
		c1.5,0,2.6-0.5,3.5-1.4s1.3-2.4,1.3-4.3c0-1.9-0.4-3.4-1.3-4.4s-2.1-1.5-3.5-1.5c-1.5,0-2.6,0.5-3.5,1.5s-1.3,2.4-1.3,4.4
		c0,1.9,0.4,3.3,1.3,4.3C1490.5,23.8,1491.7,24.3,1493.2,24.3z M1517.9,16.9h9.6V21v5.2c-2.2,2.1-5,3.1-8.4,3.1
		c-2,0-3.7-0.3-5.2-0.8s-2.8-1.3-3.7-2.2c-1-1-1.7-2.1-2.2-3.4s-0.7-2.8-0.7-4.5s0.2-3.1,0.7-4.4s1.2-2.4,2.2-3.3
		c1-0.9,2.2-1.7,3.7-2.2s3.3-0.7,5.3-0.7c2.2,0,4.5,0.4,6.9,1.1v5.3c-0.1,0-0.5-0.2-1.2-0.4s-1.2-0.4-1.6-0.5s-0.9-0.2-1.6-0.3
		s-1.4-0.2-2.1-0.2c-2.2,0-3.8,0.5-5,1.4c-1.1,0.9-1.7,2.4-1.7,4.3c0,1.9,0.6,3.4,1.7,4.4s2.6,1.6,4.6,1.6c1.6,0,2.8-0.4,3.8-1.2
		v-2.2h-4.9L1517.9,16.9z M1550.2,16.9h9.6V21v5.2c-2.2,2.1-5,3.1-8.4,3.1c-2,0-3.7-0.3-5.2-0.8s-2.8-1.3-3.7-2.2
		c-1-1-1.7-2.1-2.2-3.4s-0.7-2.8-0.7-4.5s0.2-3.1,0.7-4.4s1.2-2.4,2.2-3.3c1-0.9,2.2-1.7,3.7-2.2s3.3-0.7,5.3-0.7
		c2.2,0,4.5,0.4,6.9,1.1v5.3c-0.1,0-0.5-0.2-1.2-0.4s-1.2-0.4-1.6-0.5s-0.9-0.2-1.6-0.3s-1.4-0.2-2.1-0.2c-2.2,0-3.8,0.5-5,1.4
		c-1.1,0.9-1.7,2.4-1.7,4.3c0,1.9,0.6,3.4,1.7,4.4s2.6,1.6,4.6,1.6c1.6,0,2.8-0.4,3.7-1.2v-2.2h-4.9L1550.2,16.9z M1578.3,28.9
		l-0.9-2.8h-7.7l-1,2.8h-6.1l8.8-21h4.7l8.3,21H1578.3z M1571.3,21.7h4.6l-2.2-6.6L1571.3,21.7z M1606.4,7.9h4.7v21h-5.4V17.7
		l-6.1,8.3l-6-8.3v11.2h-5.4v-21h4.7l6.7,9.5L1606.4,7.9z M1616.4,28.9v-21h16v5.2h-10.6v2.7h9V21h-9.1v2.8h10.7V29L1616.4,28.9z
		 M1645,29.3c-1.8,0-3.5-0.3-5.2-1s-3-1.6-4-2.7l2.7-4c1.2,1,2.2,1.6,3,2.1c0.8,0.4,1.7,0.6,2.7,0.6c0.8,0,1.6-0.1,2.2-0.4
		s0.9-0.7,0.9-1.3c0-0.4-0.2-0.7-0.6-1c-0.4-0.2-1.1-0.5-2.1-0.7c-0.1,0-0.3-0.1-0.6-0.1c-0.5-0.1-0.8-0.2-1.1-0.3
		c-0.2-0.1-0.6-0.2-1.1-0.3c-0.5-0.2-0.9-0.3-1.2-0.4c-0.3-0.1-0.7-0.3-1.1-0.5s-0.8-0.4-1-0.6c-0.3-0.2-0.6-0.5-0.9-0.8
		s-0.5-0.6-0.7-1s-0.3-0.7-0.4-1.2c-0.1-0.4-0.2-0.9-0.2-1.4c0-2,0.8-3.5,2.3-4.7c1.6-1.2,3.7-1.7,6.3-1.7c3,0,5.7,0.8,7.9,2.5
		l-2.2,4.2c-0.9-0.5-1.6-0.8-2-1s-1-0.4-1.7-0.6c-0.7-0.2-1.4-0.3-2-0.3c-0.8,0-1.5,0.1-2,0.4c-0.5,0.2-0.7,0.6-0.7,1.1
		c0,0.2,0,0.4,0.2,0.6c0.1,0.2,0.2,0.3,0.3,0.4c0.1,0.1,0.3,0.2,0.6,0.3c0.2,0.1,0.5,0.2,0.6,0.2c0.2,0,0.4,0.1,0.6,0.1
		c0.7,0.1,1.2,0.3,1.7,0.4c0.4,0.1,1,0.3,1.7,0.5s1.2,0.4,1.7,0.6c0.4,0.2,0.9,0.5,1.4,0.9s0.9,0.7,1.2,1.1c0.3,0.4,0.5,0.9,0.7,1.5
		s0.3,1.2,0.3,1.9c0,2-0.8,3.7-2.3,4.9C1649.5,28.7,1647.5,29.3,1645,29.3z"/>
	
		<linearGradient id="SVGID_00000045618378845305106660000016142613334743938445_" gradientUnits="userSpaceOnUse" x1="1225.0099" y1="719.8999" x2="1251.9299" y2="701.5434" gradientTransform="matrix(0.9994 3.443214e-02 -3.443214e-02 0.9994 12.9546 -735.8935)">
		<stop  offset="0.2135" style="stop-color:#6542F4"/>
		<stop  offset="0.4844" style="stop-color:#F976FF"/>
		<stop  offset="0.7552" style="stop-color:#B50098"/>
	</linearGradient>
	<path style="fill:url(#SVGID_00000045618378845305106660000016142613334743938445_);" d="M1224.7,0l4.9,13.1l13.1,4.9l-13.1,4.9
		l-4.9,13.1l-4.9-13.1l-13.1-4.9l13.1-4.9L1224.7,0z"/>
</g>
</svg>
